# xmcd CD database file
#
# Track frame offsets:
#	150
#	18140
#	29382
#	50922
#
# Disc length: 933 seconds
#
# Revision: 0
# Processed by: cddbd v1.5.1PL0 Copyright (c) Steve Scherf et al.
# Submitted via: CDex 1.50beta9
#
DISCID=2b03a304
DTITLE=218 KATHY DURKIN - GROWDED ROOMS
DYEAR=1900
DGENRE=Country
TTITLE0=CROWDED ROOMS
TTITLE1=TIME HAS COME
TTITLE2=CHILDREN
TTITLE3=TEDDY O'NEAL
EXTD=
EXTT0=
EXTT1=
EXTT2=
EXTT3=
PLAYORDER=
